# xmcd CD database file
#
# Track frame offsets:
#	150
#	17297
#	32787
#	55058
#	75889
#	94046
#	118875
#	143551
#	161470
#	179790
#	202320
#	220686
#	241277
#	259031
#
# Disc length: 4637 seconds
#
# Revision: 2
# Processed by: cddbd v1.5.2PL0 Copyright (c) Steve Scherf et al.
# Submitted via: CDex 1.51
#
DISCID=b7121b0e
DTITLE=Dionne Warwick - The Real... Dionne Warwick CD3
DYEAR=2015
DGENRE=Soul/R&B
TTITLE0=Our Day Will Come
TTITLE1=It's The Falling In Love
TTITLE2=Love Will Find A Way [Dionne Warwick with Whitney Houston]
TTITLE3=Take Good Care Of You And Me [Dionne Warwick and Jeffrey Osborne]
TTITLE4=After You
TTITLE5=Will You Still Love Me Tomorrow
TTITLE6=Friends Can Be Lovers
TTITLE7=Some Changes Are For Good
TTITLE8=Walk Away
TTITLE9=Yours
TTITLE10=All The Time
TTITLE11=Moments Aren't Moments
TTITLE12=I Get A Kick Out Of You
TTITLE13=Hit Records Medley [Live]
EXTD=YEAR: 2015
EXTT0=
EXTT1=
EXTT2=
EXTT3=
EXTT4=
EXTT5=
EXTT6=
EXTT7=
EXTT8=
EXTT9=
EXTT10=
EXTT11=
EXTT12=
EXTT13=
PLAYORDER=
